<svg width="420" height="595" viewBox="0 0 420 595" fill="none" xmlns="http://www.w3.org/2000/svg">
<rect width="420" height="595" fill="#D6D6C6"/>
<g clip-path="url(#clip0_1_5)">
<path d="M30.06 57H28.02V43.6H32.28C35.88 43.6 38.22 45.22 38.22 48.34C38.22 51.54 35.84 53.14 32.38 53.14H30.06V57ZM32.34 45.48H30.06V51.24H32.34C34.54 51.24 36.12 50.38 36.12 48.34C36.12 46.38 34.6 45.48 32.34 45.48ZM40.6716 42.7H42.6516V57H40.6716V42.7ZM50.177 57.24C47.337 57.24 45.257 54.92 45.257 52.08C45.257 49.28 47.497 46.96 50.477 46.96C53.437 46.96 55.697 49.16 55.697 52.08V57H53.817V55.28C53.077 56.48 51.777 57.24 50.177 57.24ZM50.477 55.36C52.317 55.36 53.717 53.88 53.717 52.1C53.717 50.3 52.317 48.82 50.477 48.82C48.657 48.82 47.237 50.3 47.237 52.1C47.237 53.88 48.657 55.36 50.477 55.36ZM63.3933 48.86C61.4733 48.86 60.5133 50.44 60.5133 52.26V57H58.5333V52.06C58.5333 49.2 60.2333 46.96 63.3933 46.96C66.5933 46.96 68.3333 49.2 68.3333 52.04V57H66.3533V52.28C66.3533 50.44 65.3533 48.86 63.3933 48.86ZM81.4731 57.24C78.4931 57.24 76.2531 54.94 76.2531 52.12C76.2531 49.14 78.4131 46.96 81.3731 46.96C82.6931 46.96 83.8931 47.54 84.6931 48.42L84.7131 42.7H86.6931V52.12C86.6931 55.02 84.4331 57.24 81.4731 57.24ZM81.4731 55.38C83.3131 55.38 84.7131 53.9 84.7131 52.1C84.7131 50.32 83.3131 48.84 81.4731 48.84C79.6531 48.84 78.2331 50.32 78.2331 52.1C78.2331 53.9 79.6531 55.38 81.4731 55.38ZM94.1094 57.22C91.1294 57.22 88.9094 55.06 88.9094 52.04C88.9094 49.22 90.9294 46.92 93.8694 46.92C96.8294 46.92 98.6694 49.06 98.6694 51.8V52.6H90.8294C91.0494 54.28 92.3294 55.46 94.0894 55.46C95.2894 55.46 96.3694 54.94 96.9494 53.86L98.4694 54.64C97.6094 56.32 96.0294 57.22 94.1094 57.22ZM90.9094 51.32H96.6894C96.6094 49.76 95.4694 48.7 93.8494 48.7C92.1894 48.7 91.1094 49.86 90.9094 51.32ZM111.196 57.26C108.756 57.26 107.456 55.72 107.456 53.48V48.92H105.516V47.2H107.456V44.66H109.436V47.2H113.196V48.92H109.436V53.42C109.436 54.7 110.196 55.46 111.376 55.46C112.016 55.46 112.716 55.22 113.196 54.88V56.7C112.696 57.04 111.916 57.26 111.196 57.26ZM117.72 57H115.74V51.16C115.74 48.78 117.1 47 119.66 47C120.28 47 120.92 47.12 121.42 47.36V49.32C120.94 49.04 120.38 48.9 119.84 48.9C118.52 48.9 117.72 49.8 117.72 51.24V57ZM127.169 57.24C124.329 57.24 122.249 54.92 122.249 52.08C122.249 49.28 124.489 46.96 127.469 46.96C130.429 46.96 132.689 49.16 132.689 52.08V57H130.809V55.28C130.069 56.48 128.769 57.24 127.169 57.24ZM127.469 55.36C129.309 55.36 130.709 53.88 130.709 52.1C130.709 50.3 129.309 48.82 127.469 48.82C125.649 48.82 124.229 50.3 124.229 52.1C124.229 53.88 125.649 55.36 127.469 55.36ZM140.745 57.24C137.785 57.24 135.525 55.02 135.525 52.12V42.7H137.505V48.42C138.305 47.54 139.505 46.96 140.825 46.96C143.805 46.96 145.945 49.14 145.945 52.12C145.945 54.94 143.705 57.24 140.745 57.24ZM140.745 55.38C142.565 55.38 143.965 53.9 143.965 52.1C143.965 50.32 142.565 48.84 140.745 48.84C138.905 48.84 137.505 50.32 137.505 52.1C137.505 53.9 138.905 55.38 140.745 55.38ZM152.482 57.24C149.642 57.24 147.562 54.92 147.562 52.08C147.562 49.28 149.802 46.96 152.782 46.96C155.742 46.96 158.002 49.16 158.002 52.08V57H156.122V55.28C155.382 56.48 154.082 57.24 152.482 57.24ZM152.782 55.36C154.622 55.36 156.022 53.88 156.022 52.1C156.022 50.3 154.622 48.82 152.782 48.82C150.962 48.82 149.542 50.3 149.542 52.1C149.542 53.88 150.962 55.36 152.782 55.36ZM162.238 45.26C161.518 45.26 160.938 44.68 160.938 43.96C160.938 43.24 161.518 42.64 162.238 42.64C162.958 42.64 163.518 43.24 163.518 43.96C163.518 44.68 162.958 45.26 162.238 45.26ZM161.238 47.2H163.218V57.82C163.218 60.1 161.818 61.68 159.298 61.68L159.218 59.8C160.538 59.8 161.238 58.96 161.238 57.76V47.2ZM170.673 57.24C167.713 57.24 165.433 54.92 165.433 52.08C165.433 49.26 167.733 46.96 170.673 46.96C173.633 46.96 175.873 49.28 175.873 52.08C175.873 54.92 173.613 57.24 170.673 57.24ZM170.673 55.36C172.493 55.36 173.893 53.88 173.893 52.1C173.893 50.3 172.493 48.82 170.673 48.82C168.833 48.82 167.413 50.3 167.413 52.1C167.413 53.88 168.833 55.36 170.673 55.36Z" fill="#02283A"/>
<path d="M31.836 80H31.392V72.008H33.54C35.496 72.008 36.9 72.848 36.9 74.696C36.9 76.616 35.4 77.408 33.54 77.408H31.836V80ZM33.54 72.416H31.836V76.988H33.54C35.124 76.988 36.456 76.364 36.456 74.696C36.456 73.112 35.22 72.416 33.54 72.416ZM40.8994 80.108C39.2314 80.108 37.9354 78.752 37.9354 77.096C37.9354 75.452 39.2194 74.096 40.9354 74.096C42.6034 74.096 43.9354 75.416 43.9354 77.096V80H43.5274V78.404C43.0834 79.412 42.0994 80.108 40.8994 80.108ZM40.9354 79.7C42.3634 79.7 43.5154 78.524 43.5154 77.096C43.5154 75.68 42.3634 74.504 40.9354 74.504C39.5074 74.504 38.3674 75.68 38.3674 77.096C38.3674 78.524 39.5074 79.7 40.9354 79.7ZM46.4286 80H46.0086V76.352C46.0086 75.044 46.7766 74.156 47.9766 74.156C48.3246 74.156 48.6486 74.228 48.9486 74.384V74.828C48.6606 74.648 48.3366 74.564 48.0006 74.564C47.0406 74.564 46.4286 75.284 46.4286 76.376V80ZM52.4685 80.12C51.4005 80.12 50.7285 79.388 50.7285 78.236V74.612H49.4325V74.216H50.7285V72.668H51.1485V74.216H53.6085V74.612H51.1485V78.224C51.1485 79.16 51.6765 79.712 52.4925 79.712C52.9365 79.712 53.3205 79.544 53.6085 79.28V79.724C53.3085 79.964 52.9005 80.12 52.4685 80.12ZM57.8321 80.108C56.1641 80.108 54.9041 78.788 54.9041 77.108C54.9041 75.44 56.0441 74.096 57.7001 74.096C59.3321 74.096 60.4361 75.26 60.4361 76.916V77.228H55.3361C55.3841 78.608 56.4161 79.7 57.8321 79.7C58.6721 79.7 59.4521 79.364 59.9201 78.548L60.2561 78.752C59.7161 79.676 58.8281 80.108 57.8321 80.108ZM55.3481 76.868H60.0161C60.0161 75.452 59.0441 74.504 57.7001 74.504C56.3441 74.504 55.4441 75.548 55.3481 76.868Z" fill="#02283A"/>
<rect x="70.125" y="68.625" width="23.75" height="15.75" rx="5.875" stroke="#02283A" stroke-width="0.25"/>
<path d="M105.576 80.12C103.86 80.12 102.576 78.764 102.576 77.12C102.576 75.452 103.884 74.096 105.564 74.096C106.704 74.096 107.676 74.756 108.144 75.692L108.156 71.564H108.576V77.12C108.576 78.788 107.244 80.12 105.576 80.12ZM105.576 79.712C107.004 79.712 108.156 78.536 108.156 77.12C108.156 75.692 107.004 74.504 105.576 74.504C104.148 74.504 103.008 75.692 103.008 77.12C103.008 78.536 104.148 79.712 105.576 79.712ZM113.121 80.108C111.453 80.108 110.193 78.788 110.193 77.108C110.193 75.44 111.333 74.096 112.989 74.096C114.621 74.096 115.725 75.26 115.725 76.916V77.228H110.625C110.673 78.608 111.705 79.7 113.121 79.7C113.961 79.7 114.741 79.364 115.209 78.548L115.545 78.752C115.005 79.676 114.117 80.108 113.121 80.108ZM110.637 76.868H115.305C115.305 75.452 114.333 74.504 112.989 74.504C111.633 74.504 110.733 75.548 110.637 76.868Z" fill="#02283A"/>
<rect x="125.125" y="68.625" width="23.75" height="15.75" rx="5.875" stroke="#02283A" stroke-width="0.25"/>
<path d="M27 34H196" stroke="#02283A" stroke-width="2" stroke-linecap="round"/>
<path d="M238.892 44.508H239.336V52.5H238.892V44.508ZM244.431 47.004C242.991 47.004 242.175 48.18 242.175 49.524V52.5H241.755V49.512C241.755 47.856 242.775 46.596 244.431 46.596C246.123 46.596 247.167 47.844 247.167 49.5V52.5H246.747V49.536C246.747 48.18 245.907 47.004 244.431 47.004ZM249.687 45.132C249.483 45.132 249.327 44.976 249.327 44.76C249.327 44.532 249.483 44.376 249.687 44.376C249.903 44.376 250.047 44.532 250.047 44.76C250.047 44.976 249.903 45.132 249.687 45.132ZM249.471 46.716H249.891V52.5H249.471V46.716ZM254.644 52.608C253.096 52.62 251.752 51.276 251.752 49.608C251.752 47.94 253.096 46.596 254.644 46.596C255.64 46.596 256.54 47.04 257.068 47.964L256.708 48.18C256.24 47.364 255.496 47.004 254.644 47.004C253.324 47.004 252.184 48.192 252.184 49.608C252.184 51.024 253.324 52.2 254.644 52.2C255.496 52.2 256.24 51.852 256.708 51.036L257.068 51.252C256.54 52.176 255.64 52.608 254.644 52.608ZM259.027 45.132C258.823 45.132 258.667 44.976 258.667 44.76C258.667 44.532 258.823 44.376 259.027 44.376C259.243 44.376 259.387 44.532 259.387 44.76C259.387 44.976 259.243 45.132 259.027 45.132ZM258.811 46.716H259.231V52.5H258.811V46.716ZM264.104 52.608C262.412 52.608 261.092 51.252 261.092 49.596C261.092 47.94 262.436 46.596 264.104 46.596C265.808 46.596 267.092 47.952 267.092 49.596C267.092 51.252 265.784 52.608 264.104 52.608ZM264.104 52.2C265.52 52.2 266.672 51.024 266.672 49.596C266.672 48.18 265.52 47.004 264.104 47.004C262.664 47.004 261.524 48.18 261.524 49.596C261.524 51.024 262.664 52.2 264.104 52.2Z" fill="#02283A"/>
<g clip-path="url(#clip1_1_5)">
<line x1="276.5" y1="51.375" x2="296.5" y2="51.375" stroke="#02283A" stroke-width="0.25"/>
<line x1="301.392" y1="50.758" x2="307.392" y2="40.3657" stroke="#02283A" stroke-width="0.25"/>
<line x1="351.392" y1="51.758" x2="357.392" y2="41.3657" stroke="#02283A" stroke-width="0.25"/>
<line x1="306.5" y1="51.375" x2="346.5" y2="51.375" stroke="#02283A" stroke-width="0.25"/>
<line x1="356.5" y1="51.375" x2="376.5" y2="51.375" stroke="#02283A" stroke-width="0.25"/>
</g>
<path d="M241.024 79.62C238.888 79.62 237.076 77.784 237.076 75.492C237.076 73.212 238.888 71.388 241.024 71.388C242.344 71.388 243.484 72.048 244.132 73.092L243.772 73.32C243.196 72.372 242.116 71.808 241.012 71.808C239.128 71.808 237.532 73.44 237.532 75.492C237.532 77.556 239.116 79.188 241.012 79.188C242.116 79.188 243.196 78.636 243.772 77.688L244.132 77.916C243.484 78.972 242.344 79.62 241.024 79.62ZM246.062 72.132C245.858 72.132 245.702 71.976 245.702 71.76C245.702 71.532 245.858 71.376 246.062 71.376C246.278 71.376 246.422 71.532 246.422 71.76C246.422 71.976 246.278 72.132 246.062 72.132ZM245.846 73.716H246.266V79.5H245.846V73.716ZM251.055 79.608C249.387 79.608 248.127 78.288 248.127 76.608C248.127 74.94 249.267 73.596 250.923 73.596C252.555 73.596 253.659 74.76 253.659 76.416V76.728H248.559C248.607 78.108 249.639 79.2 251.055 79.2C251.895 79.2 252.675 78.864 253.143 78.048L253.479 78.252C252.939 79.176 252.051 79.608 251.055 79.608ZM248.571 76.368H253.239C253.239 74.952 252.267 74.004 250.923 74.004C249.567 74.004 248.667 75.048 248.571 76.368ZM255.765 79.5H255.345V75.852C255.345 74.544 256.113 73.656 257.312 73.656C257.661 73.656 257.985 73.728 258.285 73.884V74.328C257.997 74.148 257.673 74.064 257.337 74.064C256.377 74.064 255.765 74.784 255.765 75.876V79.5ZM259.632 79.5H259.212V75.852C259.212 74.544 259.98 73.656 261.18 73.656C261.528 73.656 261.852 73.728 262.152 73.884V74.328C261.864 74.148 261.54 74.064 261.204 74.064C260.244 74.064 259.632 74.784 259.632 75.876V79.5ZM265.563 79.608C263.895 79.608 262.635 78.288 262.635 76.608C262.635 74.94 263.775 73.596 265.431 73.596C267.063 73.596 268.167 74.76 268.167 76.416V76.728H263.067C263.115 78.108 264.147 79.2 265.563 79.2C266.403 79.2 267.183 78.864 267.651 78.048L267.987 78.252C267.447 79.176 266.559 79.608 265.563 79.608ZM263.079 76.368H267.747C267.747 74.952 266.775 74.004 265.431 74.004C264.075 74.004 263.175 75.048 263.079 76.368Z" fill="#02283A"/>
<g clip-path="url(#clip2_1_5)">
<line x1="277.5" y1="78.375" x2="297.5" y2="78.375" stroke="#02283A" stroke-width="0.25"/>
<line x1="302.392" y1="77.758" x2="308.392" y2="67.3657" stroke="#02283A" stroke-width="0.25"/>
<line x1="352.392" y1="78.758" x2="358.392" y2="68.3657" stroke="#02283A" stroke-width="0.25"/>
<line x1="307.5" y1="78.375" x2="347.5" y2="78.375" stroke="#02283A" stroke-width="0.25"/>
<line x1="357.5" y1="78.375" x2="377.5" y2="78.375" stroke="#02283A" stroke-width="0.25"/>
</g>
</g>
<g clip-path="url(#clip3_1_5)">
<path d="M67.6907 122.984V123.704H65.1347V131H64.3667V123.704H61.8227V122.984H67.6907ZM70.8774 131.12C69.1974 131.12 67.9254 129.752 67.9254 128.072C67.9254 126.416 69.2334 125.048 70.9734 125.048C72.6894 125.048 74.0334 126.368 74.0334 128.072V131H73.3254V129.644C72.8814 130.52 71.9814 131.12 70.8774 131.12ZM70.9734 130.412C72.2694 130.412 73.2894 129.356 73.2894 128.084C73.2894 126.812 72.2694 125.756 70.9734 125.756C69.6894 125.756 68.6694 126.812 68.6694 128.084C68.6694 129.356 69.6894 130.412 70.9734 130.412ZM76.6949 131H75.9509V127.412C75.9509 126.056 76.7309 125.096 78.0749 125.096C78.4349 125.096 78.7829 125.168 79.0829 125.312V126.068C78.7949 125.9 78.4709 125.816 78.1349 125.816C77.2469 125.816 76.6949 126.452 76.6949 127.448V131ZM82.5739 131.12C80.8579 131.12 79.5739 129.812 79.5739 128.072C79.5739 126.392 80.7379 125.036 82.4419 125.036C84.1339 125.036 85.2379 126.248 85.2379 127.904V128.348H80.3059C80.4259 129.536 81.3379 130.412 82.5739 130.412C83.3659 130.412 84.0859 130.112 84.5059 129.368L85.0819 129.68C84.5539 130.64 83.6419 131.12 82.5739 131.12ZM80.3299 127.748H84.4939C84.4699 126.536 83.6179 125.744 82.4419 125.744C81.2299 125.744 80.4379 126.62 80.3299 127.748ZM89.3462 131.12C87.6662 131.12 86.3942 129.752 86.3942 128.072C86.3942 126.416 87.7022 125.048 89.4422 125.048C91.1582 125.048 92.5022 126.368 92.5022 128.072V131H91.7942V129.644C91.3502 130.52 90.4502 131.12 89.3462 131.12ZM89.4422 130.412C90.7382 130.412 91.7582 129.356 91.7582 128.084C91.7582 126.812 90.7382 125.756 89.4422 125.756C88.1582 125.756 87.1382 126.812 87.1382 128.084C87.1382 129.356 88.1582 130.412 89.4422 130.412Z" fill="#02283A"/>
<line x1="145.083" y1="128" x2="145.083" y2="116" stroke="#02283A" stroke-width="0.5"/>
<path d="M194.588 131H193.82V122.984H194.588V126.644H199.352V122.984H200.12V131H199.352V127.364H194.588V131ZM203.517 131H202.761V122.984H205.293C206.889 122.984 208.161 123.716 208.161 125.3C208.161 126.488 207.405 127.292 206.193 127.496C206.961 127.808 207.369 128.576 207.885 129.62L208.569 131H207.741L207.105 129.728C206.541 128.6 206.097 127.784 204.789 127.784H203.517V131ZM205.293 123.704H203.529V127.076H205.269C206.481 127.076 207.381 126.512 207.381 125.36C207.381 124.196 206.433 123.704 205.293 123.704ZM210.758 131.012H209.978L211.13 123.74C211.226 123.164 211.646 122.864 212.15 122.864C212.594 122.864 213.002 123.092 213.146 123.608L214.874 129.704C214.922 129.884 214.958 129.956 215.066 129.956C215.174 129.956 215.21 129.884 215.258 129.704L216.974 123.632C217.118 123.116 217.526 122.876 217.982 122.876C218.474 122.876 218.894 123.188 218.978 123.776L220.022 131H219.254L218.27 123.992C218.234 123.728 218.162 123.56 217.946 123.56C217.778 123.56 217.658 123.704 217.598 123.944L215.822 130.052C215.714 130.424 215.414 130.616 215.066 130.616C214.73 130.616 214.406 130.424 214.31 130.064L212.522 123.92C212.45 123.668 212.366 123.548 212.186 123.548C212.006 123.548 211.886 123.692 211.838 123.98L210.758 131.012ZM226.708 122.984V123.704H224.152V131H223.384V123.704H220.84V122.984H226.708Z" fill="#02283A"/>
<line x1="274.417" y1="128" x2="274.417" y2="116" stroke="#02283A" stroke-width="0.5"/>
<path d="M319.153 122.984H319.921V131H319.153V122.984ZM324.975 125.756C323.655 125.756 322.947 126.848 322.947 128.084V131H322.203V128.024C322.203 126.344 323.223 125.048 324.975 125.048C326.763 125.048 327.807 126.332 327.807 128.012V131H327.063V128.096C327.063 126.848 326.331 125.756 324.975 125.756ZM331.671 131.108C330.687 131.108 329.871 130.688 329.439 129.836L330.051 129.5C330.399 130.172 330.939 130.412 331.647 130.412C332.427 130.412 333.075 130.076 333.075 129.404C333.075 127.94 329.619 128.96 329.619 126.752C329.619 125.78 330.507 125.096 331.623 125.096C332.571 125.096 333.291 125.504 333.675 126.2L333.063 126.548C332.751 125.96 332.247 125.792 331.635 125.792C330.987 125.792 330.363 126.14 330.363 126.74C330.363 128.156 333.819 127.184 333.819 129.392C333.819 130.448 332.823 131.108 331.671 131.108ZM338.158 130.412C339.43 130.412 340.162 129.32 340.162 128.072V125.18H340.906V128.156C340.906 129.836 339.874 131.12 338.158 131.12C336.466 131.12 335.446 129.824 335.446 128.144V125.18H336.19V128.084C336.19 129.32 336.898 130.412 338.158 130.412ZM349.956 125.036C351.6 125.036 352.548 126.308 352.548 127.928V131H351.804V128.036C351.804 126.812 351.168 125.744 349.92 125.744C348.72 125.744 348.06 126.764 348.06 127.988V131H347.316V128C347.316 126.764 346.644 125.744 345.42 125.744C344.172 125.744 343.572 126.812 343.572 128.024V131H342.828V127.94C342.828 126.308 343.752 125.036 345.372 125.036C346.584 125.036 347.448 125.744 347.712 126.764C347.976 125.744 348.792 125.036 349.956 125.036ZM357.105 131.12C355.377 131.12 354.045 129.752 354.045 128.072C354.045 126.404 355.401 125.048 357.105 125.048C358.845 125.048 360.153 126.416 360.153 128.072C360.153 129.752 358.821 131.12 357.105 131.12ZM357.105 130.412C358.389 130.412 359.409 129.356 359.409 128.084C359.409 126.812 358.389 125.756 357.105 125.756C355.809 125.756 354.789 126.812 354.789 128.084C354.789 129.356 355.809 130.412 357.105 130.412Z" fill="#02283A"/>
<path d="M32 153H115.333" stroke="#02283A" stroke-width="0.6" stroke-linecap="round" stroke-dasharray="2 2"/>
<circle cx="130.333" cy="148" r="4.75" stroke="#02283A" stroke-width="0.5"/>
<path d="M32 173.769H115.333" stroke="#02283A" stroke-width="0.6" stroke-linecap="round" stroke-dasharray="2 2"/>
<circle cx="130.333" cy="168.769" r="4.75" stroke="#02283A" stroke-width="0.5"/>
<path d="M32 194.538H115.333" stroke="#02283A" stroke-width="0.6" stroke-linecap="round" stroke-dasharray="2 2"/>
<circle cx="130.333" cy="189.538" r="4.75" stroke="#02283A" stroke-width="0.5"/>
<path d="M32 215.308H115.333" stroke="#02283A" stroke-width="0.6" stroke-linecap="round" stroke-dasharray="2 2"/>
<circle cx="130.333" cy="210.308" r="4.75" stroke="#02283A" stroke-width="0.5"/>
<path d="M32 236.077H115.333" stroke="#02283A" stroke-width="0.6" stroke-linecap="round" stroke-dasharray="2 2"/>
<circle cx="130.333" cy="231.077" r="4.75" stroke="#02283A" stroke-width="0.5"/>
<path d="M32 256.846H115.333" stroke="#02283A" stroke-width="0.6" stroke-linecap="round" stroke-dasharray="2 2"/>
<circle cx="130.333" cy="251.846" r="4.75" stroke="#02283A" stroke-width="0.5"/>
<path d="M32 277.615H115.333" stroke="#02283A" stroke-width="0.6" stroke-linecap="round" stroke-dasharray="2 2"/>
<circle cx="130.333" cy="272.615" r="4.75" stroke="#02283A" stroke-width="0.5"/>
<path d="M32 298.385H115.333" stroke="#02283A" stroke-width="0.6" stroke-linecap="round" stroke-dasharray="2 2"/>
<circle cx="130.333" cy="293.385" r="4.75" stroke="#02283A" stroke-width="0.5"/>
<path d="M32 319.154H115.333" stroke="#02283A" stroke-width="0.6" stroke-linecap="round" stroke-dasharray="2 2"/>
<circle cx="130.333" cy="314.154" r="4.75" stroke="#02283A" stroke-width="0.5"/>
<path d="M32 339.923H115.333" stroke="#02283A" stroke-width="0.6" stroke-linecap="round" stroke-dasharray="2 2"/>
<circle cx="130.333" cy="334.923" r="4.75" stroke="#02283A" stroke-width="0.5"/>
<path d="M32 360.692H115.333" stroke="#02283A" stroke-width="0.6" stroke-linecap="round" stroke-dasharray="2 2"/>
<circle cx="130.333" cy="355.692" r="4.75" stroke="#02283A" stroke-width="0.5"/>
<path d="M32 381.461H115.333" stroke="#02283A" stroke-width="0.6" stroke-linecap="round" stroke-dasharray="2 2"/>
<circle cx="130.333" cy="376.461" r="4.75" stroke="#02283A" stroke-width="0.5"/>
<path d="M32 402.231H115.333" stroke="#02283A" stroke-width="0.6" stroke-linecap="round" stroke-dasharray="2 2"/>
<circle cx="130.333" cy="397.231" r="4.75" stroke="#02283A" stroke-width="0.5"/>
<path d="M32 423H115.333" stroke="#02283A" stroke-width="0.6" stroke-linecap="round" stroke-dasharray="2 2"/>
<circle cx="130.333" cy="418" r="4.75" stroke="#02283A" stroke-width="0.5"/>
<line x1="145.083" y1="423" x2="145.083" y2="143" stroke="#02283A" stroke-width="0.5"/>
<rect width="11" height="50" transform="translate(120 141) rotate(-90)" fill="#D6D6C6"/>
<path d="M134.48 138L131.48 138C130.928 138 130.728 137.72 130.728 137.264L130.728 133.376C130.728 132.92 130.928 132.64 131.48 132.64L134.424 132.64L134.424 133.384L131.544 133.384L131.544 134.944L134.264 134.944L134.264 135.688L131.544 135.688L131.544 137.256L134.48 137.256L134.48 138ZM139.138 132.64L139.138 133.392L137.49 133.392L137.49 138L136.674 138L136.674 133.392L135.034 133.392L135.034 132.64L139.138 132.64ZM139.179 138L140.643 133.288C140.803 132.784 141.195 132.544 141.643 132.544C142.099 132.544 142.491 132.784 142.651 133.288L144.115 138L143.283 138L142.891 136.688L140.395 136.696L140.003 138L139.179 138ZM141.347 133.528L140.619 135.952L142.675 135.952L141.955 133.528C141.899 133.36 141.803 133.28 141.651 133.28C141.491 133.28 141.395 133.36 141.347 133.528ZM146.03 138L145.214 138L145.214 132.64L146.918 132.64C148.358 132.64 149.294 133.288 149.294 134.536C149.294 135.816 148.342 136.456 146.958 136.456L146.03 136.456L146.03 138ZM146.942 133.392L146.03 133.392L146.03 135.696L146.942 135.696C147.822 135.696 148.454 135.352 148.454 134.536C148.454 133.752 147.846 133.392 146.942 133.392ZM149.835 138L151.299 133.288C151.459 132.784 151.851 132.544 152.299 132.544C152.755 132.544 153.147 132.784 153.307 133.288L154.771 138L153.939 138L153.547 136.688L151.051 136.696L150.659 138L149.835 138ZM152.003 133.528L151.275 135.952L153.331 135.952L152.611 133.528C152.555 133.36 152.459 133.28 152.307 133.28C152.147 133.28 152.051 133.36 152.003 133.528ZM157.47 138.088C156.566 138.088 155.806 137.68 155.486 136.944L156.174 136.608C156.382 137.072 156.838 137.32 157.47 137.32C158.094 137.32 158.574 137.024 158.574 136.496C158.574 135.904 158.03 135.8 157.398 135.68C156.59 135.52 155.59 135.256 155.59 134.12C155.59 133.232 156.398 132.56 157.414 132.56C158.23 132.56 158.958 132.944 159.278 133.68L158.598 134.032C158.382 133.592 157.974 133.32 157.382 133.32C156.838 133.32 156.398 133.64 156.398 134.096C156.398 134.672 156.966 134.8 157.614 134.928C158.414 135.088 159.39 135.352 159.39 136.488C159.39 137.432 158.55 138.088 157.47 138.088Z" fill="#02283A"/>
<circle cx="160.333" cy="148" r="4.75" stroke="#02283A" stroke-width="0.5"/>
<path d="M175.333 153H244.667" stroke="#02283A" stroke-width="0.6" stroke-linecap="round" stroke-dasharray="2 2"/>
<circle cx="259.667" cy="148" r="4.75" stroke="#02283A" stroke-width="0.5"/>
<circle cx="160.333" cy="168.769" r="4.75" stroke="#02283A" stroke-width="0.5"/>
<path d="M175.333 173.769H244.667" stroke="#02283A" stroke-width="0.6" stroke-linecap="round" stroke-dasharray="2 2"/>
<circle cx="259.667" cy="168.769" r="4.75" stroke="#02283A" stroke-width="0.5"/>
<circle cx="160.333" cy="189.538" r="4.75" stroke="#02283A" stroke-width="0.5"/>
<path d="M175.333 194.538H244.667" stroke="#02283A" stroke-width="0.6" stroke-linecap="round" stroke-dasharray="2 2"/>
<circle cx="259.667" cy="189.538" r="4.75" stroke="#02283A" stroke-width="0.5"/>
<circle cx="160.333" cy="210.308" r="4.75" stroke="#02283A" stroke-width="0.5"/>
<path d="M175.333 215.308H244.667" stroke="#02283A" stroke-width="0.6" stroke-linecap="round" stroke-dasharray="2 2"/>
<circle cx="259.667" cy="210.308" r="4.75" stroke="#02283A" stroke-width="0.5"/>
<circle cx="160.333" cy="231.077" r="4.75" stroke="#02283A" stroke-width="0.5"/>
<path d="M175.333 236.077H244.667" stroke="#02283A" stroke-width="0.6" stroke-linecap="round" stroke-dasharray="2 2"/>
<circle cx="259.667" cy="231.077" r="4.75" stroke="#02283A" stroke-width="0.5"/>
<circle cx="160.333" cy="251.846" r="4.75" stroke="#02283A" stroke-width="0.5"/>
<path d="M175.333 256.846H244.667" stroke="#02283A" stroke-width="0.6" stroke-linecap="round" stroke-dasharray="2 2"/>
<circle cx="259.667" cy="251.846" r="4.75" stroke="#02283A" stroke-width="0.5"/>
<circle cx="160.333" cy="272.615" r="4.75" stroke="#02283A" stroke-width="0.5"/>
<path d="M175.333 277.615H244.667" stroke="#02283A" stroke-width="0.6" stroke-linecap="round" stroke-dasharray="2 2"/>
<circle cx="259.667" cy="272.615" r="4.75" stroke="#02283A" stroke-width="0.5"/>
<circle cx="160.333" cy="293.385" r="4.75" stroke="#02283A" stroke-width="0.5"/>
<path d="M175.333 298.385H244.667" stroke="#02283A" stroke-width="0.6" stroke-linecap="round" stroke-dasharray="2 2"/>
<circle cx="259.667" cy="293.385" r="4.75" stroke="#02283A" stroke-width="0.5"/>
<circle cx="160.333" cy="314.154" r="4.75" stroke="#02283A" stroke-width="0.5"/>
<path d="M175.333 319.154H244.667" stroke="#02283A" stroke-width="0.6" stroke-linecap="round" stroke-dasharray="2 2"/>
<circle cx="259.667" cy="314.154" r="4.75" stroke="#02283A" stroke-width="0.5"/>
<circle cx="160.333" cy="334.923" r="4.75" stroke="#02283A" stroke-width="0.5"/>
<path d="M175.333 339.923H244.667" stroke="#02283A" stroke-width="0.6" stroke-linecap="round" stroke-dasharray="2 2"/>
<circle cx="259.667" cy="334.923" r="4.75" stroke="#02283A" stroke-width="0.5"/>
<circle cx="160.333" cy="355.692" r="4.75" stroke="#02283A" stroke-width="0.5"/>
<path d="M175.333 360.692H244.667" stroke="#02283A" stroke-width="0.6" stroke-linecap="round" stroke-dasharray="2 2"/>
<circle cx="259.667" cy="355.692" r="4.75" stroke="#02283A" stroke-width="0.5"/>
<circle cx="160.333" cy="376.461" r="4.75" stroke="#02283A" stroke-width="0.5"/>
<path d="M175.333 381.461H244.667" stroke="#02283A" stroke-width="0.6" stroke-linecap="round" stroke-dasharray="2 2"/>
<circle cx="259.667" cy="376.461" r="4.75" stroke="#02283A" stroke-width="0.5"/>
<circle cx="160.333" cy="397.231" r="4.75" stroke="#02283A" stroke-width="0.5"/>
<path d="M175.333 402.231H244.667" stroke="#02283A" stroke-width="0.6" stroke-linecap="round" stroke-dasharray="2 2"/>
<circle cx="259.667" cy="397.231" r="4.75" stroke="#02283A" stroke-width="0.5"/>
<circle cx="160.333" cy="418" r="4.75" stroke="#02283A" stroke-width="0.5"/>
<path d="M175.333 423H244.667" stroke="#02283A" stroke-width="0.6" stroke-linecap="round" stroke-dasharray="2 2"/>
<circle cx="259.667" cy="418" r="4.75" stroke="#02283A" stroke-width="0.5"/>
<line x1="274.917" y1="143" x2="274.917" y2="423" stroke="#02283A" stroke-width="0.5"/>
<circle cx="289.667" cy="148" r="4.75" stroke="#02283A" stroke-width="0.5"/>
<path d="M304.667 153H388" stroke="#02283A" stroke-width="0.6" stroke-linecap="round" stroke-dasharray="2 2"/>
<circle cx="289.667" cy="168.769" r="4.75" stroke="#02283A" stroke-width="0.5"/>
<path d="M304.667 173.769H388" stroke="#02283A" stroke-width="0.6" stroke-linecap="round" stroke-dasharray="2 2"/>
<circle cx="289.667" cy="189.538" r="4.75" stroke="#02283A" stroke-width="0.5"/>
<path d="M304.667 194.538H388" stroke="#02283A" stroke-width="0.6" stroke-linecap="round" stroke-dasharray="2 2"/>
<circle cx="289.667" cy="210.308" r="4.75" stroke="#02283A" stroke-width="0.5"/>
<path d="M304.667 215.308H388" stroke="#02283A" stroke-width="0.6" stroke-linecap="round" stroke-dasharray="2 2"/>
<circle cx="289.667" cy="231.077" r="4.75" stroke="#02283A" stroke-width="0.5"/>
<path d="M304.667 236.077H388" stroke="#02283A" stroke-width="0.6" stroke-linecap="round" stroke-dasharray="2 2"/>
<circle cx="289.667" cy="251.846" r="4.75" stroke="#02283A" stroke-width="0.5"/>
<path d="M304.667 256.846H388" stroke="#02283A" stroke-width="0.6" stroke-linecap="round" stroke-dasharray="2 2"/>
<circle cx="289.667" cy="272.615" r="4.75" stroke="#02283A" stroke-width="0.5"/>
<path d="M304.667 277.615H388" stroke="#02283A" stroke-width="0.6" stroke-linecap="round" stroke-dasharray="2 2"/>
<circle cx="289.667" cy="293.385" r="4.75" stroke="#02283A" stroke-width="0.5"/>
<path d="M304.667 298.385H388" stroke="#02283A" stroke-width="0.6" stroke-linecap="round" stroke-dasharray="2 2"/>
<circle cx="289.667" cy="314.154" r="4.75" stroke="#02283A" stroke-width="0.5"/>
<path d="M304.667 319.154H388" stroke="#02283A" stroke-width="0.6" stroke-linecap="round" stroke-dasharray="2 2"/>
<circle cx="289.667" cy="334.923" r="4.75" stroke="#02283A" stroke-width="0.5"/>
<path d="M304.667 339.923H388" stroke="#02283A" stroke-width="0.6" stroke-linecap="round" stroke-dasharray="2 2"/>
<circle cx="289.667" cy="355.692" r="4.75" stroke="#02283A" stroke-width="0.5"/>
<path d="M304.667 360.692H388" stroke="#02283A" stroke-width="0.6" stroke-linecap="round" stroke-dasharray="2 2"/>
<circle cx="289.667" cy="376.461" r="4.75" stroke="#02283A" stroke-width="0.5"/>
<path d="M304.667 381.461H388" stroke="#02283A" stroke-width="0.6" stroke-linecap="round" stroke-dasharray="2 2"/>
<circle cx="289.667" cy="397.231" r="4.75" stroke="#02283A" stroke-width="0.5"/>
<path d="M304.667 402.231H388" stroke="#02283A" stroke-width="0.6" stroke-linecap="round" stroke-dasharray="2 2"/>
<circle cx="289.667" cy="418" r="4.75" stroke="#02283A" stroke-width="0.5"/>
<path d="M304.667 423H388" stroke="#02283A" stroke-width="0.6" stroke-linecap="round" stroke-dasharray="2 2"/>
<rect width="11" height="41" transform="translate(255 141) rotate(-90)" fill="#D6D6C6"/>
<path d="M266.56 138L265.744 138L265.744 133.376C265.744 132.92 265.944 132.64 266.496 132.64L269.44 132.64L269.44 133.392L266.56 133.392L266.56 135.208L269.256 135.208L269.256 135.96L266.56 135.96L266.56 138ZM270.511 132.64L271.327 132.64L271.327 138L270.511 138L270.511 132.64ZM272.189 138.04L272.189 137.248C272.989 137.248 273.365 136.824 273.365 136.104L273.365 132.64L274.181 132.64L274.181 136.048C274.181 137.296 273.509 138.04 272.189 138.04ZM277.963 138.096C276.403 138.096 275.203 136.888 275.203 135.312C275.203 133.76 276.411 132.552 277.963 132.552C279.507 132.552 280.707 133.76 280.707 135.312C280.707 136.888 279.507 138.096 277.963 138.096ZM277.963 137.32C279.019 137.32 279.867 136.44 279.867 135.312C279.867 134.2 279.027 133.328 277.963 133.328C276.899 133.328 276.043 134.2 276.043 135.312C276.043 136.44 276.891 137.32 277.963 137.32ZM283.439 138.088C282.535 138.088 281.775 137.68 281.455 136.944L282.143 136.608C282.351 137.072 282.807 137.32 283.439 137.32C284.063 137.32 284.543 137.024 284.543 136.496C284.543 135.904 283.999 135.8 283.367 135.68C282.559 135.52 281.559 135.256 281.559 134.12C281.559 133.232 282.367 132.56 283.383 132.56C284.199 132.56 284.927 132.944 285.247 133.68L284.567 134.032C284.351 133.592 283.943 133.32 283.351 133.32C282.807 133.32 282.367 133.64 282.367 134.096C282.367 134.672 282.935 134.8 283.583 134.928C284.383 135.088 285.359 135.352 285.359 136.488C285.359 137.432 284.519 138.088 283.439 138.088Z" fill="#02283A"/>
<path d="M64.9627 437.008V437.416H62.3587V445H61.9267V437.428H59.3107V437.008H64.9627ZM66.6078 437.632C66.4038 437.632 66.2478 437.476 66.2478 437.26C66.2478 437.032 66.4038 436.876 66.6078 436.876C66.8238 436.876 66.9678 437.032 66.9678 437.26C66.9678 437.476 66.8238 437.632 66.6078 437.632ZM66.3918 439.216H66.8118V445H66.3918V439.216ZM71.6004 445.108C69.9324 445.108 68.6724 443.788 68.6724 442.108C68.6724 440.44 69.8124 439.096 71.4684 439.096C73.1004 439.096 74.2044 440.26 74.2044 441.916V442.228H69.1044C69.1524 443.608 70.1844 444.7 71.6004 444.7C72.4404 444.7 73.2204 444.364 73.6884 443.548L74.0244 443.752C73.4844 444.676 72.5964 445.108 71.6004 445.108ZM69.1164 441.868H73.7844C73.7844 440.452 72.8124 439.504 71.4684 439.504C70.1124 439.504 69.2124 440.548 69.1164 441.868ZM82.9101 439.096C84.4701 439.096 85.3941 440.332 85.3941 441.94V445H84.9741V441.988C84.9741 440.656 84.2541 439.504 82.8981 439.504C81.6141 439.504 80.8581 440.596 80.8581 441.928V445H80.4381V441.94C80.4381 440.596 79.6701 439.504 78.3501 439.504C76.9941 439.504 76.3101 440.656 76.3101 441.976V445H75.8901V441.952C75.8901 440.332 76.8021 439.096 78.3261 439.096C79.5621 439.096 80.4261 439.876 80.6541 440.956C80.8941 439.876 81.7101 439.096 82.9101 439.096ZM87.8882 447.652H87.4682V442.096C87.4682 440.416 88.8122 439.096 90.4802 439.096C92.1842 439.096 93.4682 440.452 93.4682 442.096C93.4682 443.764 92.1722 445.12 90.4922 445.12C89.3402 445.12 88.3682 444.46 87.9002 443.5L87.8882 447.652ZM90.4802 444.712C91.9082 444.712 93.0482 443.524 93.0482 442.096C93.0482 440.68 91.9082 439.504 90.4802 439.504C89.0402 439.504 87.9002 440.68 87.9002 442.096C87.9002 443.524 89.0402 444.712 90.4802 444.712ZM97.6414 445.108C95.9494 445.108 94.6294 443.752 94.6294 442.096C94.6294 440.44 95.9734 439.096 97.6414 439.096C99.3454 439.096 100.629 440.452 100.629 442.096C100.629 443.752 99.3214 445.108 97.6414 445.108ZM97.6414 444.7C99.0574 444.7 100.209 443.524 100.209 442.096C100.209 440.68 99.0574 439.504 97.6414 439.504C96.2014 439.504 95.0614 440.68 95.0614 442.096C95.0614 443.524 96.2014 444.7 97.6414 444.7Z" fill="#02283A"/>
<line x1="59.1667" y1="459.875" x2="102.167" y2="459.875" stroke="#02283A" stroke-width="0.25" stroke-dasharray="1.5 1.5"/>
<path d="M117.967 433V466H118.367V433H117.967ZM43.3667 466V433H42.9667V466H43.3667Z" fill="#02283A" mask="url(#path-170-inside-1_1_5)"/>
<path d="M184.62 445.012V444.58C185.82 444.58 186.54 443.716 186.54 442.36V437.008H186.984V442.348C186.984 443.968 186.108 445.012 184.62 445.012ZM191.744 445.108C190.052 445.108 188.732 443.752 188.732 442.096C188.732 440.44 190.076 439.096 191.744 439.096C193.448 439.096 194.732 440.452 194.732 442.096C194.732 443.752 193.424 445.108 191.744 445.108ZM191.744 444.7C193.16 444.7 194.312 443.524 194.312 442.096C194.312 440.68 193.16 439.504 191.744 439.504C190.304 439.504 189.164 440.68 189.164 442.096C189.164 443.524 190.304 444.7 191.744 444.7ZM196.757 445H196.337V441.352C196.337 440.044 197.105 439.156 198.305 439.156C198.653 439.156 198.977 439.228 199.277 439.384V439.828C198.989 439.648 198.665 439.564 198.329 439.564C197.369 439.564 196.757 440.284 196.757 441.376V445ZM202.88 439.504C201.44 439.504 200.624 440.68 200.624 442.024V445H200.204V442.012C200.204 440.356 201.224 439.096 202.88 439.096C204.572 439.096 205.616 440.344 205.616 442V445H205.196V442.036C205.196 440.68 204.356 439.504 202.88 439.504ZM210.188 445.108C208.52 445.108 207.224 443.752 207.224 442.096C207.224 440.452 208.508 439.096 210.224 439.096C211.892 439.096 213.224 440.416 213.224 442.096V445H212.816V443.404C212.372 444.412 211.388 445.108 210.188 445.108ZM210.224 444.7C211.652 444.7 212.804 443.524 212.804 442.096C212.804 440.68 211.652 439.504 210.224 439.504C208.796 439.504 207.656 440.68 207.656 442.096C207.656 443.524 208.796 444.7 210.224 444.7ZM217.842 445.12C216.126 445.12 214.842 443.764 214.842 442.12C214.842 440.452 216.15 439.096 217.83 439.096C218.97 439.096 219.942 439.756 220.41 440.692L220.422 436.564H220.842V442.12C220.842 443.788 219.51 445.12 217.842 445.12ZM217.842 444.712C219.27 444.712 220.422 443.536 220.422 442.12C220.422 440.692 219.27 439.504 217.842 439.504C216.414 439.504 215.274 440.692 215.274 442.12C215.274 443.536 216.414 444.712 217.842 444.712ZM225.423 445.108C223.755 445.108 222.459 443.752 222.459 442.096C222.459 440.452 223.743 439.096 225.459 439.096C227.127 439.096 228.459 440.416 228.459 442.096V445H228.051V443.404C227.607 444.412 226.623 445.108 225.423 445.108ZM225.459 444.7C226.887 444.7 228.039 443.524 228.039 442.096C228.039 440.68 226.887 439.504 225.459 439.504C224.031 439.504 222.891 440.68 222.891 442.096C222.891 443.524 224.031 444.7 225.459 444.7ZM232.356 445.084C231.456 445.084 230.664 444.676 230.244 443.848L230.604 443.644C230.976 444.376 231.6 444.676 232.344 444.676C233.208 444.676 233.952 444.232 233.952 443.452C233.952 441.688 230.436 442.9 230.436 440.728C230.436 439.792 231.312 439.156 232.308 439.156C233.148 439.156 233.856 439.504 234.252 440.212L233.892 440.416C233.544 439.78 232.968 439.564 232.32 439.564C231.576 439.564 230.868 440.02 230.868 440.728C230.868 442.444 234.384 441.256 234.384 443.452C234.384 444.46 233.436 445.084 232.356 445.084Z" fill="#02283A"/>
<line x1="184.5" y1="459.875" x2="235.5" y2="459.875" stroke="#02283A" stroke-width="0.25" stroke-dasharray="1.5 1.5"/>
<path d="M251.3 433V466H251.7V433H251.3ZM168.7 466V433H168.3V466H168.7Z" fill="#02283A" mask="url(#path-174-inside-2_1_5)"/>
<path d="M319.609 441.184C318.709 441.184 318.085 440.284 318.085 439.072C318.085 437.848 318.721 436.972 319.609 436.972C320.521 436.972 321.133 437.848 321.133 439.072C321.133 440.2 320.497 441.184 319.609 441.184ZM320.257 445H319.813L323.689 437.008H324.133L320.257 445ZM319.609 440.848C320.281 440.848 320.773 440.008 320.773 439.072C320.773 438.052 320.293 437.296 319.609 437.296C318.925 437.296 318.445 438.052 318.445 439.072C318.445 440.092 318.925 440.848 319.609 440.848ZM324.373 445.06C323.461 445.06 322.849 444.16 322.849 442.948C322.849 441.724 323.473 440.836 324.373 440.836C325.285 440.836 325.885 441.724 325.885 442.948C325.885 444.076 325.249 445.06 324.373 445.06ZM324.373 444.724C325.033 444.724 325.525 443.884 325.525 442.948C325.525 441.916 325.045 441.172 324.373 441.172C323.689 441.172 323.197 441.916 323.197 442.948C323.197 443.968 323.689 444.724 324.373 444.724ZM331.327 445H330.895V437.512C330.895 437.2 331.003 437.008 331.399 437.008H336.079V437.416H331.327V441.04H335.815V441.46H331.327V445ZM344.636 440.92C344.636 443.488 342.704 445 340.316 445H337.94V437.008H340.424C342.932 437.008 344.636 438.58 344.636 440.92ZM344.192 440.92C344.192 438.82 342.62 437.416 340.424 437.416H338.384V444.58H340.316C342.404 444.58 344.192 443.236 344.192 440.92ZM347.185 437.008V444.592H351.505V445H347.257C346.861 445 346.741 444.808 346.741 444.496V437.008H347.185ZM359.718 440.92C359.718 443.488 357.786 445 355.398 445H353.022V437.008H355.506C358.014 437.008 359.718 438.58 359.718 440.92ZM359.274 440.92C359.274 438.82 357.702 437.416 355.506 437.416H353.466V444.58H355.398C357.486 444.58 359.274 443.236 359.274 440.92Z" fill="#02283A"/>
<line x1="317.833" y1="459.875" x2="360.833" y2="459.875" stroke="#02283A" stroke-width="0.25" stroke-dasharray="1.5 1.5"/>
<path d="M376.633 433V466H377.033V433H376.633ZM302.033 466V433H301.633V466H302.033Z" fill="#02283A" mask="url(#path-178-inside-3_1_5)"/>
<line x1="31.5" y1="475.75" x2="388.5" y2="475.75" stroke="#02283A" stroke-width="0.5"/>
<path d="M33.944 502H33.212V494.908C33.212 494.236 33.608 493.864 34.172 493.864C34.628 493.864 34.904 494.056 35.108 494.464L38.432 501.148C38.552 501.388 38.624 501.484 38.792 501.484C38.936 501.484 39.008 501.376 39.008 501.16V493.984H39.74V501.088C39.74 501.76 39.296 502.12 38.816 502.12C38.396 502.12 38.06 501.94 37.856 501.52L34.52 494.776C34.424 494.572 34.352 494.476 34.208 494.476C34.028 494.476 33.944 494.608 33.944 494.86V502ZM44.5531 502.12C42.8251 502.12 41.4931 500.752 41.4931 499.072C41.4931 497.404 42.8491 496.048 44.5531 496.048C46.2931 496.048 47.6011 497.416 47.6011 499.072C47.6011 500.752 46.2691 502.12 44.5531 502.12ZM44.5531 501.412C45.8371 501.412 46.8571 500.356 46.8571 499.084C46.8571 497.812 45.8371 496.756 44.5531 496.756C43.2571 496.756 42.2371 497.812 42.2371 499.084C42.2371 500.356 43.2571 501.412 44.5531 501.412ZM51.4487 502.132C50.2127 502.132 49.4927 501.328 49.4927 500.092V496.852H48.2567V496.18H49.4927V494.632H50.2367V496.18H52.6127V496.852H50.2367V500.068C50.2367 500.932 50.7407 501.436 51.5087 501.436C51.9287 501.436 52.3247 501.28 52.6127 501.04V501.76C52.3127 501.988 51.8807 502.132 51.4487 502.132ZM56.7615 502.12C55.0815 502.12 53.8095 500.752 53.8095 499.072C53.8095 497.416 55.1175 496.048 56.8575 496.048C58.5735 496.048 59.9175 497.368 59.9175 499.072V502H59.2095V500.644C58.7655 501.52 57.8655 502.12 56.7615 502.12ZM56.8575 501.412C58.1535 501.412 59.1735 500.356 59.1735 499.084C59.1735 497.812 58.1535 496.756 56.8575 496.756C55.5735 496.756 54.5535 497.812 54.5535 499.084C54.5535 500.356 55.5735 501.412 56.8575 501.412ZM63.779 502.108C62.795 502.108 61.979 501.688 61.547 500.836L62.159 500.5C62.507 501.172 63.047 501.412 63.755 501.412C64.535 501.412 65.183 501.076 65.183 500.404C65.183 498.94 61.727 499.96 61.727 497.752C61.727 496.78 62.615 496.096 63.731 496.096C64.679 496.096 65.399 496.504 65.783 497.2L65.171 497.548C64.859 496.96 64.355 496.792 63.743 496.792C63.095 496.792 62.471 497.14 62.471 497.74C62.471 499.156 65.927 498.184 65.927 500.392C65.927 501.448 64.931 502.108 63.779 502.108ZM33.56 514.096C33.26 514.096 33.02 513.856 33.02 513.544C33.02 513.244 33.26 513.016 33.56 513.016C33.86 513.016 34.1 513.244 34.1 513.544C34.1 513.856 33.86 514.096 33.56 514.096ZM36.6772 514.096C36.3772 514.096 36.1372 513.856 36.1372 513.544C36.1372 513.244 36.3772 513.016 36.6772 513.016C36.9772 513.016 37.2172 513.244 37.2172 513.544C37.2172 513.856 36.9772 514.096 36.6772 514.096ZM39.7944 514.096C39.4944 514.096 39.2544 513.856 39.2544 513.544C39.2544 513.244 39.4944 513.016 39.7944 513.016C40.0944 513.016 40.3344 513.244 40.3344 513.544C40.3344 513.856 40.0944 514.096 39.7944 514.096Z" fill="#02283A"/>
</g>
<rect x="16.25" y="111.25" width="387.5" height="467.5" rx="3.75" stroke="#02283A" stroke-width="0.5"/>
<defs>
<clipPath id="clip0_1_5">
<rect width="388" height="73" fill="white" transform="translate(16 26)"/>
</clipPath>
<clipPath id="clip1_1_5">
<rect width="100" height="11" fill="white" transform="translate(276.5 40.5)"/>
</clipPath>
<clipPath id="clip2_1_5">
<rect width="100" height="11" fill="white" transform="translate(277.5 67.5)"/>
</clipPath>
<clipPath id="clip3_1_5">
<rect x="16" y="111" width="388" height="468" rx="4" fill="white"/>
</clipPath>
</defs>
</svg>
